<svg width="26" height="26" viewBox="0 0 26 26" fill="none" xmlns="http://www.w3.org/2000/svg">
<path d="M12.4797 15.3555L9.06595 11.9418C9.01886 11.8947 8.98177 11.8421 8.95469 11.784C8.9276 11.726 8.91406 11.6637 8.91406 11.5974C8.91406 11.4646 8.95895 11.3493 9.04872 11.2514C9.13848 11.1535 9.25678 11.1045 9.40365 11.1045H16.5952C16.7421 11.1045 16.8604 11.1539 16.9502 11.2528C17.0399 11.3516 17.0848 11.467 17.0848 11.5988C17.0848 11.6318 17.0341 11.7462 16.9327 11.942L13.5192 15.3555C13.4408 15.434 13.3596 15.4913 13.2759 15.5274C13.1921 15.5635 13.1 15.5815 12.9994 15.5815C12.8989 15.5815 12.8068 15.5635 12.723 15.5274C12.6392 15.4913 12.5581 15.434 12.4797 15.3555Z" fill="#333236"/>
</svg>
