<svg width="20" height="20" viewBox="0 0 20 20" fill="none" xmlns="http://www.w3.org/2000/svg">
<path d="M12.3593 10.0001L6.082 3.72281C5.91641 3.55721 5.83574 3.3601 5.84 3.13148C5.84428 2.90284 5.92922 2.70573 6.09482 2.54014C6.26041 2.37455 6.45752 2.29175 6.68615 2.29175C6.91477 2.29175 7.11189 2.37455 7.27748 2.54014L13.6573 8.93277C13.8079 9.08341 13.9196 9.25221 13.9922 9.43917C14.0649 9.62614 14.1012 9.8131 14.1012 10.0001C14.1012 10.187 14.0649 10.374 13.9922 10.561C13.9196 10.7479 13.8079 10.9167 13.6573 11.0674L7.26467 17.46C7.09907 17.6256 6.90409 17.7062 6.67973 17.702C6.45539 17.6977 6.26041 17.6128 6.09482 17.4472C5.92922 17.2816 5.84642 17.0845 5.84642 16.8558C5.84642 16.6272 5.92922 16.4301 6.09482 16.2645L12.3593 10.0001Z" fill="#333236"/>
</svg>
