<svg width="200" height="280" viewBox="0 0 200 280" fill="none" xmlns="http://www.w3.org/2000/svg">
<g clip-path="url(#clip0_1_4080)">
<path d="M199.968 17.0421C199.876 16.89 199.661 16.7885 199.445 16.8392C197.568 17.4987 195.692 18.0567 193.753 18.6401C188.43 20.2633 182.892 21.3286 177.353 22.3939C171.015 23.5606 164.553 24.3976 158.245 25.6911C152.799 26.7818 147.384 28.1007 142.153 29.8254C138.215 31.0936 134.338 32.4632 130.707 34.2133C126.399 36.1663 122.922 39.0831 119.538 41.9746C116.43 44.6631 113.292 47.3517 110.553 50.3192C109.015 51.9932 107.722 53.8194 106.492 55.6456C108.43 49.6091 111.138 43.5218 116.092 38.7027C116.461 38.3222 116.03 37.8657 115.507 38.0686C114.245 38.5759 113.076 39.2353 111.876 39.8441C102.707 44.9675 94.5223 51.3338 87.4761 58.3595C84.03 61.8343 80.7069 65.3852 77.9684 69.2659C74.7992 73.806 72.3992 78.7011 70.6761 83.7485C70.4915 80.7556 70.7992 77.7627 71.2915 74.7951C71.3838 74.2625 71.4761 73.7552 71.5069 73.2226C71.5069 72.8675 71.63 72.3602 71.1992 72.1573C70.8915 72.0305 70.5838 72.1573 70.3684 72.3602C70.0915 72.5885 69.8761 72.8421 69.63 73.0958C69.1377 73.6284 68.6454 74.1864 68.1838 74.7444C66.6454 76.5452 65.2607 78.4475 64.0607 80.4259C61.1069 85.4225 58.3992 90.4699 55.6608 95.5426C52.8915 100.615 50.3377 105.79 47.6608 110.888C45.1069 115.707 42.3069 120.45 39.4146 125.142C37.8454 127.653 36.2454 130.164 34.3684 132.548C33.5684 133.563 32.7377 134.552 31.8761 135.516C31.9992 135.313 32.1223 135.135 32.2454 134.932C34.7684 130.849 36.4915 126.486 38.0608 122.098C39.3531 119.283 40.6454 116.468 42.0915 113.728C43.7838 110.609 45.2915 107.438 46.7377 104.242C49.63 98.2058 53.1377 92.4229 57.1377 86.8175C59.7223 83.1905 62.4915 79.6396 65.0146 75.9619C67.3838 72.5124 69.2607 68.8601 71.4146 65.3345C73.0146 62.6967 74.6454 60.0589 76.03 57.345C76.43 56.5841 76.83 55.7978 77.1992 55.0115C77.3531 54.6311 77.5377 54.2252 77.63 53.8194C77.63 53.6672 77.6608 53.4897 77.5377 53.3375C77.2607 52.9824 76.7069 53.1092 76.3684 53.3375C75.3838 53.9462 74.4607 54.5803 73.5069 55.2398C70.43 57.3957 67.23 59.4248 63.9377 61.3524C70.9838 54.3013 78.4915 47.0981 81.8761 38.2208C82.1223 37.4599 82.7992 35.5576 82.1223 34.9235C81.6608 34.5938 81.1377 35.0503 80.8607 35.3293C77.9992 38.2715 74.9838 41.1122 71.63 43.674C72.9223 42 74.1531 40.2752 75.2607 38.4998C77.1069 35.4561 78.9223 32.3871 80.43 29.2167C82.2146 25.3361 83.5684 21.354 84.9838 17.3972C86.43 13.0854 87.7223 8.72287 89.2915 4.43642C89.4454 4.0306 89.5992 3.62478 89.6915 3.1936C89.6915 3.06678 89.7531 2.9146 89.6915 2.78778C89.5992 2.55951 89.2607 2.40733 88.9838 2.48342C88.7377 2.53414 88.4915 2.66096 88.2761 2.81314C85.1377 5.24805 82.3377 7.96196 79.3223 10.473C77.1069 12.3499 74.8607 14.2521 72.7377 16.2051C68.4607 20.2126 64.6454 24.5751 61.63 29.2928C58.8915 33.5792 56.8915 38.2208 55.6608 42.9638C53.9992 49.1525 53.4454 55.4934 52.3992 61.7582C51.1992 59.0443 50.4915 56.1782 50.3377 53.2614C50.2761 52.2976 50.2146 51.2831 50.1531 50.2431C50.1531 49.7612 50.1531 48.7213 49.2608 48.9496C48.9838 49.0764 48.83 49.33 48.6761 49.5837C48.3992 50.0402 48.1531 50.5221 47.9069 51.0041C47.1377 52.4751 46.2761 53.8955 45.4761 55.3412C43.1992 59.3994 41.23 63.6098 40.2146 67.9977C39.3223 71.5993 38.8608 75.277 38.8608 78.9294C38.8608 84.0529 39.8146 89.1002 39.7838 94.249C38.0915 91.9917 36.3684 89.709 35.6608 87.0711C35.2915 85.8283 35.0146 84.5855 34.7684 83.3427C34.7069 82.9876 34.6146 82.6071 34.5531 82.2521C34.4915 81.9984 34.4915 81.6687 34.2454 81.4911C33.6915 81.136 33.3223 81.7448 33.1992 82.1252C32.1531 84.8645 31.63 87.756 31.5069 90.6474C31.3531 93.5642 31.6915 96.481 32.03 99.3979C32.3377 102.036 32.6761 104.674 32.8915 107.337C32.7377 108.301 32.6761 109.264 32.5838 110.228C32.2146 114.971 31.5684 119.714 30.4608 124.381C29.7223 128.135 28.7684 131.838 27.1684 135.44C26.2454 138.001 25.0454 140.487 23.5377 142.846C23.2915 143.176 23.0761 143.531 22.8608 143.86C19.8761 148.248 17.1377 152.738 14.1223 157.1C12.3069 159.662 10.5531 162.274 8.92229 164.938C7.72229 166.662 6.6146 168.412 5.66076 170.213C4.82999 171.735 4.02999 173.282 3.29153 174.829C3.0146 175.489 2.2146 176.808 2.64537 177.467C3.29153 177.949 3.8146 177.315 4.2146 176.63C4.30691 176.554 4.39922 176.478 4.46076 176.402C4.70691 176.123 4.92229 175.844 5.10691 175.54C5.59922 174.855 6.09153 174.195 6.55306 173.536C8.58383 170.619 10.5531 167.677 12.5531 164.735C15.5377 160.169 18.7992 155.73 22.0915 151.292C22.6454 150.556 23.1684 149.821 23.7223 149.06C24.3992 148.248 25.0761 147.462 25.7838 146.65C27.0454 145.23 28.3992 143.86 29.8761 142.592C31.6915 140.943 33.9684 139.346 36.0915 137.951C39.1684 135.896 41.9377 133.563 44.6454 131.204C50.9531 125.548 56.8915 119.613 63.0454 113.83C67.1377 109.772 71.5377 105.866 76.2454 102.315C79.7223 99.9051 83.3223 97.597 86.9838 95.3904C92.83 91.941 98.9838 88.872 104.799 85.3718C111.661 81.2375 118.368 76.9257 124.522 72.0812C124.707 71.9037 124.922 71.7008 124.799 71.4471C124.676 71.1174 124.184 71.1681 123.845 71.2442C122.461 71.5486 121.138 72.0051 119.784 72.2841C118.399 72.5378 116.984 72.7661 115.599 72.969C111.815 73.5777 107.938 73.8313 104.092 73.8567C106.276 73.1719 108.492 72.5124 110.707 71.9037C116.215 70.534 121.784 69.3673 127.168 67.6933C136.738 64.9794 145.107 60.1096 152.768 54.7579C154.645 53.4643 156.553 52.1708 158.276 50.7251C158.584 50.4207 159.045 50.1417 159.107 49.7105C159.107 49.2032 158.368 49.2032 157.907 49.3047C153.599 50.0656 149.261 50.8011 144.892 51.1816C141.999 51.4099 138.984 51.5874 136.092 51.1562C139.445 50.3192 142.83 49.5837 146.276 49.0003C149.476 48.4677 152.707 47.9604 155.815 47.1741C160.645 46.0074 164.984 43.7247 168.676 40.9347C170.892 39.1846 172.953 37.3077 174.984 35.4054C177.138 33.3763 179.076 31.1951 181.353 29.2421C184.338 26.655 187.599 24.2961 191.076 22.191C193.661 20.517 196.43 19.0966 199.292 17.7523C199.507 17.6509 199.722 17.6001 199.938 17.4987C200.122 17.3972 200.184 17.2197 200.092 17.0421H199.968ZM31.8146 137.545C31.8146 137.545 31.8146 137.545 31.7531 137.545H31.7838H31.8146ZM39.1684 110.279C41.5377 103.887 43.8146 97.4702 46.2761 91.104C48.5838 84.5855 50.8915 78.067 53.3223 71.5993C56.03 63.9395 58.1838 56.1529 61.0454 48.5184C63.0761 43.1413 65.3531 37.815 67.9069 32.5901C70.2146 27.8724 72.7992 23.2309 76.3069 19.0205C73.4454 24.6259 70.4915 30.1805 67.9992 35.8873C65.5992 40.884 63.5684 45.9821 61.8146 51.1562C57.5377 62.5952 54.9531 74.4147 50.83 85.879C49.0761 90.9518 47.1069 95.9738 44.9838 100.97C43.4761 104.547 41.6915 108.123 40.2146 111.699C36.9223 119.638 33.8761 127.653 30.1223 135.465C30.0608 135.516 29.9992 135.566 29.9377 135.617C29.8146 135.592 29.6915 135.617 29.5992 135.643C30.2454 133.969 30.8608 132.269 31.3838 130.57C33.8761 123.772 36.6146 117.051 39.1684 110.279ZM131.661 47.9351C128.092 49.9641 124.522 51.9932 121.138 54.1999C115.507 57.903 110.03 61.7329 104.584 65.6135C101.415 67.947 98.5531 70.5594 95.5684 73.0704C92.6146 75.6068 89.63 78.0924 86.83 80.7302C83.1069 84.1543 79.2915 87.5277 75.7223 91.0786C72.5838 94.1222 69.7223 97.3688 66.8915 100.615C64.7992 102.923 62.6761 105.231 60.7069 107.616C58.3684 110.38 55.9377 113.069 53.5992 115.834C51.2608 118.624 48.9531 121.414 46.6761 124.229C45.23 126.004 43.7838 127.805 42.0915 129.454C40.0915 131.407 38.03 133.461 35.7531 135.262C34.8915 135.896 34.0608 136.53 33.23 137.19C33.23 137.19 33.23 137.19 33.1992 137.19C32.7992 137.114 32.7992 136.809 32.8915 136.556C34.5223 135.059 36.1531 133.588 37.7531 132.066C39.6915 130.215 41.4454 128.236 43.0761 126.207C51.7531 115.757 60.5223 105.333 69.8454 95.2382C73.3223 91.5098 76.9223 87.832 80.7992 84.3826C87.4761 78.549 94.3684 72.9182 101.261 67.2368C110.153 59.9321 119.63 53.0839 129.938 47.1741C138.153 42.6087 146.892 38.7027 155.907 35.3293C147.476 39.0578 139.599 43.5979 131.661 47.9604V47.9351Z" fill="#5534DA"/>
<path d="M139.23 176.275C138.984 176.706 138.646 177.086 138.276 177.441C134.4 180.764 128.676 182.489 123.261 183.376C117.784 184.315 112.153 183.452 106.8 182.463C112.123 178.836 118.092 174.601 119.292 168.691C120.461 161.614 112.369 157.024 104.584 156.719C78.5534 156.009 55.0457 167.651 32.9841 177.72C24.6149 181.499 15.2918 186.344 5.35337 184.442C3.96876 184.112 2.55337 183.376 2.1226 182.159C2.15337 181.829 1.96876 181.449 1.56876 181.297C-1.50817 180.789 0.676449 184.366 2.09183 185C14.3072 190.757 31.2918 180.079 42.0918 175.463C53.2303 170.441 64.738 165.368 76.8611 162.096C86.9226 159.636 98.8303 156.897 109.2 159.205C114.492 160.473 118.615 165.038 116.923 169.604C114.8 174.88 109.292 178.608 104.153 181.905C96.0611 180.307 87.6611 178.557 79.2918 179.546C74.6765 180.231 69.3534 181.576 67.0457 185.228C63.4457 191.214 72.4611 192.38 77.6918 192.254C87.5072 192 96.8611 188.677 104.615 183.782C113.415 185.684 122.123 186.395 130.707 183.402C134.584 181.931 138.984 180.307 141.076 177.035C141.723 176.046 139.815 175.235 139.2 176.224L139.23 176.275ZM77.4149 190.554C74.5841 190.377 69.5995 190.706 68.3995 188.094C68.2149 184.797 72.6457 182.869 75.9688 182.032C84.4918 179.902 93.4764 181.677 101.907 183.3C94.7995 187.587 86.2765 190.351 77.4149 190.554Z" fill="#5534DA"/>
</g>
<path d="M13.2718 266.22V234.525H0.795898V227.16H34.7706V234.525H22.2946V266.22H13.2718Z" fill="#5534DA"/>
<path d="M54.6036 266.22V260.361L54.0467 259.077V248.587C54.0467 246.727 53.4711 245.276 52.3201 244.234C51.2061 243.193 49.4796 242.672 47.1403 242.672C45.5437 242.672 43.9656 242.932 42.4061 243.453C40.8838 243.937 39.5842 244.606 38.5074 245.462L35.3884 239.38C37.0222 238.227 38.9901 237.334 41.2922 236.701C43.5943 236.069 45.9336 235.753 48.3099 235.753C52.877 235.753 56.423 236.832 58.9479 238.989C61.4728 241.147 62.7353 244.513 62.7353 249.089V266.22H54.6036ZM45.4694 266.666C43.1302 266.666 41.1251 266.275 39.4542 265.494C37.7834 264.676 36.5023 263.578 35.6112 262.202C34.7201 260.826 34.2745 259.282 34.2745 257.571C34.2745 255.785 34.7015 254.223 35.5555 252.883C36.4466 251.544 37.8391 250.503 39.7327 249.759C41.6264 248.977 44.0956 248.587 47.1403 248.587H55.1049V253.665H48.0872C46.045 253.665 44.634 253.999 43.8542 254.669C43.1116 255.339 42.7403 256.176 42.7403 257.18C42.7403 258.296 43.1673 259.189 44.0213 259.858C44.9125 260.491 46.1192 260.807 47.6416 260.807C49.0897 260.807 50.3893 260.472 51.5403 259.803C52.6914 259.096 53.5268 258.073 54.0467 256.734L55.3834 260.751C54.7521 262.686 53.6011 264.155 51.9302 265.159C50.2593 266.164 48.1057 266.666 45.4694 266.666Z" fill="#5534DA"/>
<path d="M79.4141 266.666C76.852 266.666 74.3828 266.368 72.0065 265.773C69.6672 265.141 67.8107 264.36 66.4368 263.43L69.333 257.18C70.7069 258.036 72.3221 258.742 74.1786 259.3C76.0723 259.821 77.9288 260.082 79.7482 260.082C81.7533 260.082 83.1643 259.84 83.9811 259.356C84.8351 258.873 85.2622 258.203 85.2622 257.347C85.2622 256.641 84.928 256.12 84.2596 255.785C83.6284 255.413 82.7744 255.134 81.6976 254.948C80.6208 254.762 79.4326 254.576 78.133 254.39C76.8706 254.204 75.5896 253.962 74.29 253.665C72.9904 253.33 71.8022 252.846 70.7254 252.214C69.6487 251.581 68.7761 250.726 68.1077 249.647C67.4765 248.568 67.1609 247.173 67.1609 245.462C67.1609 243.565 67.6993 241.891 68.7761 240.44C69.89 238.989 71.4866 237.855 73.566 237.036C75.6453 236.181 78.133 235.753 81.0292 235.753C83.0714 235.753 85.1508 235.976 87.2672 236.422C89.3837 236.869 91.1474 237.52 92.5583 238.375L89.6621 244.569C88.2141 243.714 86.7474 243.137 85.2622 242.839C83.814 242.505 82.4031 242.337 81.0292 242.337C79.0984 242.337 77.6875 242.598 76.7963 243.118C75.9052 243.639 75.4596 244.309 75.4596 245.127C75.4596 245.871 75.7752 246.429 76.4065 246.801C77.0748 247.173 77.9474 247.471 79.0242 247.694C80.101 247.917 81.2706 248.122 82.533 248.308C83.8326 248.457 85.1322 248.698 86.4318 249.033C87.7314 249.368 88.901 249.852 89.9406 250.484C91.0174 251.079 91.89 251.916 92.5583 252.995C93.2267 254.037 93.5609 255.413 93.5609 257.124C93.5609 258.984 93.0039 260.64 91.89 262.09C90.7761 263.504 89.1609 264.62 87.0444 265.438C84.9651 266.257 82.4217 266.666 79.4141 266.666Z" fill="#5534DA"/>
<path d="M104.841 260.082L105.063 249.48L119.043 236.199H129.403L115.98 249.87L111.468 253.553L104.841 260.082ZM97.6558 266.22V224.816H106.344V266.22H97.6558ZM119.99 266.22L109.853 253.609L115.312 246.857L130.517 266.22H119.99Z" fill="#5534DA"/>
<path d="M133.158 266.22V236.199H141.847V266.22H133.158ZM137.503 232.014C135.906 232.014 134.606 231.549 133.604 230.619C132.601 229.689 132.1 228.536 132.1 227.16C132.1 225.783 132.601 224.63 133.604 223.7C134.606 222.77 135.906 222.305 137.503 222.305C139.099 222.305 140.399 222.751 141.401 223.644C142.404 224.5 142.905 225.616 142.905 226.992C142.905 228.443 142.404 229.652 141.401 230.619C140.436 231.549 139.136 232.014 137.503 232.014Z" fill="#5534DA"/>
<path d="M149.703 266.22V235.53C149.703 232.144 150.706 229.447 152.711 227.439C154.716 225.393 157.575 224.37 161.288 224.37C162.55 224.37 163.757 224.5 164.908 224.76C166.096 225.021 167.099 225.43 167.916 225.988L165.632 232.293C165.149 231.958 164.611 231.698 164.017 231.512C163.423 231.326 162.792 231.233 162.123 231.233C160.861 231.233 159.877 231.605 159.171 232.349C158.503 233.056 158.169 234.135 158.169 235.585V238.375L158.392 242.114V266.22H149.703ZM145.08 243.565V236.869H165.855V243.565H145.08Z" fill="#5534DA"/>
<path d="M173.249 277.491C171.689 277.491 170.149 277.249 168.626 276.766C167.104 276.282 165.86 275.613 164.895 274.757L168.069 268.563C168.738 269.158 169.499 269.623 170.353 269.958C171.244 270.293 172.116 270.46 172.97 270.46C174.196 270.46 175.161 270.163 175.867 269.568C176.609 269.01 177.278 268.061 177.872 266.722L179.431 263.039L180.1 262.09L190.849 236.199H199.203L185.669 268.061C184.704 270.479 183.59 272.376 182.327 273.753C181.102 275.129 179.728 276.096 178.206 276.654C176.721 277.212 175.068 277.491 173.249 277.491ZM178.373 267.391L165.006 236.199H173.973L184.332 261.309L178.373 267.391Z" fill="#5534DA"/>
<defs>
<clipPath id="clip0_1_4080">
<rect width="200" height="189.796" fill="white" transform="translate(0 2.50879)"/>
</clipPath>
</defs>
</svg>
