<svg width="14" height="14" viewBox="0 0 14 14" fill="none" xmlns="http://www.w3.org/2000/svg">
<path d="M3.096 12.5412C2.80133 12.5412 2.55192 12.4391 2.34775 12.235C2.14359 12.0308 2.0415 11.7814 2.0415 11.4867V3.67909C2.0415 3.38442 2.14359 3.13501 2.34775 2.93084C2.55192 2.72668 2.80133 2.62459 3.096 2.62459H3.90369V1.83933C3.90369 1.71145 3.94651 1.60469 4.03214 1.51906C4.11777 1.43344 4.22452 1.39062 4.35241 1.39062C4.48028 1.39062 4.58704 1.43344 4.67267 1.51906C4.7583 1.60469 4.80111 1.71145 4.80111 1.83933V2.62459H9.22097V1.82811C9.22097 1.70397 9.26284 1.60002 9.3466 1.51626C9.43036 1.4325 9.53431 1.39062 9.65845 1.39062C9.7826 1.39062 9.88654 1.4325 9.9703 1.51626C10.0541 1.60002 10.096 1.70397 10.096 1.82811V2.62459H10.9036C11.1983 2.62459 11.4477 2.72668 11.6519 2.93084C11.8561 3.13501 11.9581 3.38442 11.9581 3.67909V11.4867C11.9581 11.7814 11.8561 12.0308 11.6519 12.235C11.4477 12.4391 11.1983 12.5412 10.9036 12.5412H3.096ZM3.096 11.6662H10.9036C10.9485 11.6662 10.9897 11.6476 11.0271 11.6102C11.0645 11.5728 11.0832 11.5316 11.0832 11.4867V6.01242H2.91649V11.4867C2.91649 11.5316 2.93518 11.5728 2.97258 11.6102C3.00998 11.6476 3.05112 11.6662 3.096 11.6662ZM2.91649 5.13743H11.0832V3.67909C11.0832 3.63421 11.0645 3.59307 11.0271 3.55567C10.9897 3.51828 10.9485 3.49958 10.9036 3.49958H3.096C3.05112 3.49958 3.00998 3.51828 2.97258 3.55567C2.93518 3.59307 2.91649 3.63421 2.91649 3.67909V5.13743Z" fill="#787486"/>
</svg>
