<svg width="24" height="28" viewBox="0 0 24 28" fill="none" xmlns="http://www.w3.org/2000/svg">
<g clip-path="url(#clip0_1_4671)">
<path d="M23.6162 2.08367C23.6053 2.06191 23.5799 2.04741 23.5544 2.05466C23.3327 2.14894 23.111 2.22871 22.8819 2.31211C22.2531 2.54417 21.5987 2.69646 20.9444 2.84875C20.1955 3.01555 19.4321 3.13521 18.6869 3.32013C18.0435 3.47605 17.4037 3.66461 16.7857 3.91117C16.3204 4.09247 15.8624 4.28828 15.4334 4.53847C14.9245 4.81767 14.5137 5.23466 14.1139 5.64803C13.7467 6.03239 13.3759 6.41674 13.0524 6.84098C12.8706 7.0803 12.718 7.34137 12.5726 7.60245C12.8016 6.73946 13.1215 5.86922 13.7067 5.18027C13.7504 5.12588 13.6995 5.06062 13.6377 5.08962C13.4886 5.16214 13.3505 5.25642 13.2087 5.34344C12.1254 6.0759 11.1585 6.98602 10.326 7.99043C9.91887 8.48719 9.52627 8.99483 9.20274 9.54961C8.82832 10.1987 8.54478 10.8985 8.3412 11.6201C8.31939 11.1922 8.35575 10.7643 8.41391 10.3401C8.42481 10.2639 8.43572 10.1914 8.43935 10.1153C8.43935 10.0645 8.4539 9.99198 8.403 9.96297C8.36665 9.94484 8.3303 9.96297 8.30485 9.99198C8.27214 10.0246 8.24669 10.0609 8.21761 10.0971C8.15945 10.1733 8.10128 10.2531 8.04676 10.3328C7.865 10.5903 7.70141 10.8622 7.55964 11.1451C7.21066 11.8594 6.89077 12.5809 6.56724 13.3061C6.24007 14.0313 5.93835 14.7711 5.62209 15.4999C5.32037 16.1888 4.98957 16.8669 4.64786 17.5377C4.46246 17.8967 4.27343 18.2556 4.05169 18.5965C3.95717 18.7415 3.85902 18.8829 3.75724 19.0207C3.77178 18.9917 3.78632 18.9663 3.80086 18.9373C4.09895 18.3535 4.30252 17.7299 4.48791 17.1026C4.64059 16.7001 4.79327 16.2976 4.96412 15.906C5.16405 15.46 5.34218 15.0067 5.51303 14.5499C5.85474 13.6869 6.26915 12.8602 6.74172 12.0588C7.04708 11.5403 7.37425 11.0326 7.67233 10.5069C7.95224 10.0137 8.17399 9.49159 8.42845 8.98758C8.61748 8.61047 8.81014 8.23337 8.97373 7.84539C9.02098 7.73661 9.06824 7.6242 9.11186 7.5118C9.13004 7.4574 9.15185 7.39939 9.16276 7.34137C9.16276 7.31962 9.16639 7.29423 9.15185 7.27248C9.11913 7.22171 9.0537 7.23984 9.01371 7.27248C8.89739 7.3595 8.78833 7.45015 8.67564 7.54443C8.31212 7.85264 7.93406 8.14272 7.5451 8.4183C8.37756 7.41027 9.26454 6.38048 9.66441 5.11138C9.69349 5.0026 9.77347 4.73065 9.69349 4.64C9.63897 4.59286 9.57717 4.65813 9.54445 4.69802C9.20638 5.11863 8.85013 5.52474 8.4539 5.89097C8.60657 5.65165 8.75198 5.40509 8.88285 5.15127C9.10096 4.71615 9.31543 4.2774 9.49356 3.82415C9.7044 3.26937 9.86435 2.70009 10.0316 2.13443C10.2024 1.51801 10.3551 0.894338 10.5405 0.281544C10.5587 0.223528 10.5768 0.165512 10.5877 0.10387C10.5877 0.0857395 10.595 0.0639835 10.5877 0.0458535C10.5768 0.0132194 10.5369 -0.0085366 10.5041 0.00234141C10.4751 0.00959342 10.446 0.0277234 10.4205 0.0494795C10.0497 0.397576 9.71894 0.785558 9.36269 1.14453C9.10096 1.41286 8.83559 1.68481 8.58476 1.96401C8.07947 2.53692 7.62871 3.16059 7.27246 3.83503C6.94893 4.44782 6.71264 5.11138 6.56724 5.78944C6.37094 6.67419 6.3055 7.58069 6.18191 8.47631C6.04013 8.08833 5.95652 7.67859 5.93835 7.2616C5.93108 7.12381 5.92381 6.97877 5.91654 6.83011C5.91654 6.76121 5.91654 6.61255 5.81112 6.64518C5.7784 6.66331 5.76022 6.69957 5.74205 6.73583C5.70933 6.8011 5.68025 6.86999 5.65117 6.93889C5.56029 7.14919 5.4585 7.35225 5.36399 7.55893C5.09499 8.13909 4.86233 8.74101 4.74237 9.36831C4.63695 9.8832 4.58243 10.409 4.58243 10.9311C4.58243 11.6636 4.69512 12.3851 4.69148 13.1212C4.49155 12.7985 4.28798 12.4722 4.20437 12.0951C4.16074 11.9174 4.12803 11.7397 4.09895 11.562C4.09168 11.5113 4.08077 11.4569 4.0735 11.4061C4.06623 11.3699 4.06623 11.3227 4.03715 11.2973C3.97171 11.2466 3.92809 11.3336 3.91355 11.388C3.78996 11.7796 3.72816 12.193 3.71362 12.6063C3.69544 13.0233 3.73543 13.4403 3.77541 13.8573C3.81177 14.2344 3.85175 14.6115 3.8772 14.9922C3.85902 15.13 3.85175 15.2678 3.84085 15.4056C3.79723 16.0837 3.72089 16.7617 3.59002 17.4289C3.50278 17.9656 3.39008 18.495 3.20106 19.0099C3.092 19.3761 2.95023 19.7314 2.7721 20.0686C2.74302 20.1158 2.71758 20.1665 2.69213 20.2137C2.33952 20.841 2.01599 21.4828 1.65974 22.1065C1.44526 22.4727 1.23806 22.8462 1.04539 23.2269C0.90362 23.4735 0.772753 23.7237 0.660062 23.9811C0.561912 24.1987 0.467398 24.4199 0.380153 24.641C0.347437 24.7353 0.252922 24.9239 0.303814 25.0181C0.380153 25.087 0.441951 24.9964 0.489209 24.8985C0.500114 24.8876 0.51102 24.8767 0.51829 24.8658C0.547372 24.826 0.572818 24.7861 0.594629 24.7426C0.652792 24.6447 0.710955 24.5504 0.765483 24.4561C1.0054 24.0391 1.23806 23.6185 1.47434 23.1979C1.82696 22.5452 2.21229 21.9107 2.60125 21.2761C2.66668 21.1709 2.72848 21.0658 2.79392 20.957C2.87389 20.841 2.95386 20.7286 3.03747 20.6125C3.18651 20.4095 3.34646 20.2137 3.52095 20.0324C3.73543 19.7967 4.00443 19.5683 4.25526 19.3688C4.61878 19.0751 4.94594 18.7415 5.26584 18.4043C6.01105 17.5957 6.71264 16.7472 7.43968 15.9205C7.92316 15.3403 8.44299 14.7819 8.99917 14.2743C9.40995 13.9298 9.83527 13.5999 10.2679 13.2844C10.9585 12.7913 11.6856 12.3525 12.3726 11.8521C13.1833 11.2611 13.9757 10.6447 14.7028 9.9521C14.7246 9.92671 14.75 9.89771 14.7355 9.86145C14.721 9.81431 14.6628 9.82156 14.6228 9.83244C14.4592 9.87595 14.3029 9.94122 14.143 9.9811C13.9794 10.0174 13.8122 10.05 13.6486 10.079C13.2014 10.166 12.7434 10.2023 12.289 10.2059C12.5471 10.108 12.8088 10.0137 13.0706 9.92671C13.7213 9.73091 14.3792 9.56411 15.0154 9.3248C16.1459 8.93681 17.1347 8.24062 18.0399 7.47553C18.2616 7.29061 18.487 7.10568 18.6906 6.899C18.7269 6.85549 18.7815 6.8156 18.7887 6.75396C18.7887 6.68144 18.7015 6.68144 18.6469 6.69594C18.138 6.80472 17.6255 6.90988 17.1093 6.96427C16.7676 6.9969 16.4113 7.02228 16.0696 6.96064C16.4658 6.84098 16.8657 6.73583 17.2729 6.65243C17.6509 6.57629 18.0326 6.50377 18.3998 6.39136C18.9705 6.22456 19.483 5.89822 19.9193 5.49936C20.181 5.24917 20.4246 4.98084 20.6645 4.70889C20.9189 4.41881 21.148 4.10698 21.417 3.82778C21.7696 3.45792 22.1549 3.1207 22.5657 2.81975C22.871 2.58043 23.1982 2.37737 23.5363 2.1852C23.5617 2.17069 23.5872 2.16344 23.6126 2.14894C23.6344 2.13443 23.6417 2.10905 23.6308 2.08367H23.6162ZM3.74997 19.3108C3.74997 19.3108 3.74997 19.3108 3.7427 19.3108H3.74633H3.74997ZM4.61878 15.4129C4.89869 14.4991 5.16769 13.5817 5.4585 12.6716C5.73114 11.7397 6.00378 10.8078 6.29096 9.8832C6.61086 8.78815 6.86532 7.67496 7.20339 6.58354C7.44331 5.81482 7.71232 5.05336 8.01404 4.30641C8.28668 3.63197 8.59203 2.96841 9.00644 2.3665C8.66837 3.16784 8.31939 3.96194 8.02494 4.77779C7.7414 5.49211 7.50148 6.22094 7.29427 6.96064C6.78898 8.59597 6.48363 10.2857 5.99651 11.9246C5.78931 12.6498 5.55665 13.3678 5.30583 14.0821C5.1277 14.5934 4.91686 15.1046 4.74237 15.6159C4.35341 16.7509 3.99353 17.8967 3.55003 19.0135C3.54276 19.0207 3.53549 19.028 3.52822 19.0352C3.51368 19.0316 3.49914 19.0352 3.48823 19.0389C3.56457 18.7995 3.63728 18.5566 3.69908 18.3137C3.99353 17.3419 4.31706 16.381 4.61878 15.4129ZM15.5461 6.50014C15.1245 6.79022 14.7028 7.0803 14.3029 7.39576C13.6377 7.92516 12.9906 8.47268 12.3472 9.02746C11.9728 9.36106 11.6347 9.73453 11.2821 10.0935C10.9331 10.4561 10.5805 10.8115 10.2497 11.1886C9.80982 11.6781 9.35906 12.1603 8.93738 12.668C8.56659 13.1031 8.22851 13.5672 7.89408 14.0313C7.64688 14.3613 7.39606 14.6913 7.16341 15.0321C6.88713 15.4274 6.59995 15.8117 6.32368 16.207C6.0474 16.6058 5.77477 17.0047 5.50576 17.4072C5.33491 17.661 5.16405 17.9184 4.96412 18.1541C4.72783 18.4333 4.48428 18.727 4.21527 18.9845C4.11349 19.0751 4.01534 19.1658 3.91719 19.26C3.91719 19.26 3.91719 19.26 3.91355 19.26C3.86629 19.2492 3.86629 19.2057 3.8772 19.1694C4.06986 18.9555 4.26253 18.7452 4.45156 18.5276C4.68058 18.2629 4.88778 17.9801 5.08045 17.69C6.10557 16.1961 7.14159 14.7058 8.24306 13.2626C8.65383 12.7296 9.07915 12.2038 9.53718 11.7107C10.326 10.8767 11.1403 10.0718 11.9546 9.25953C13.0051 8.21524 14.1248 7.23622 15.3426 6.39136C16.3132 5.73868 17.3456 5.18027 18.4107 4.69802C17.4146 5.23104 16.484 5.88009 15.5461 6.50377V6.50014Z" fill="#5534DA"/>
<path d="M16.4403 24.8484C16.4112 24.9101 16.3712 24.9644 16.3276 25.0152C15.8696 25.4902 15.1934 25.7368 14.5536 25.8637C13.9066 25.9979 13.2413 25.8746 12.6088 25.7332C13.2377 25.2146 13.9429 24.6091 14.0847 23.7642C14.2228 22.7526 13.2668 22.0963 12.3471 22.0528C9.27172 21.9512 6.49444 23.6156 3.88801 25.0551C2.89924 25.5954 1.79778 26.2879 0.623615 26.016C0.460032 25.9689 0.292813 25.8637 0.241921 25.6896C0.245556 25.6425 0.223745 25.5881 0.176487 25.5664C-0.187031 25.4938 0.0710671 26.0051 0.238286 26.0958C1.68145 26.9189 3.68808 25.3923 4.96402 24.7324C6.27996 24.0144 7.63952 23.2892 9.07178 22.8215C10.2605 22.4698 11.6673 22.0781 12.8924 22.4081C13.5176 22.5894 14.0047 23.2421 13.8048 23.8948C13.554 24.649 12.9033 25.182 12.2962 25.6534C11.3401 25.425 10.3477 25.1748 9.35896 25.3162C8.81368 25.4141 8.1848 25.6063 7.91216 26.1284C7.48684 26.9841 8.55195 27.1509 9.16993 27.1328C10.3296 27.0965 11.4347 26.6215 12.3507 25.9217C13.3904 26.1937 14.4191 26.2952 15.4334 25.8673C15.8914 25.657 16.4112 25.4249 16.6584 24.9572C16.7347 24.8158 16.5094 24.6997 16.4367 24.8412L16.4403 24.8484ZM9.13722 26.8899C8.80278 26.8645 8.21388 26.9116 8.07211 26.5381C8.0503 26.0668 8.57376 25.7912 8.96636 25.6715C9.97331 25.3669 11.0348 25.6208 12.0308 25.8528C11.1911 26.4656 10.1841 26.8608 9.13722 26.8899Z" fill="#5534DA"/>
</g>
<defs>
<clipPath id="clip0_1_4671">
<rect width="23.6287" height="27.1334" fill="white"/>
</clipPath>
</defs>
</svg>
