<svg width="22" height="22" viewBox="0 0 22 22" fill="none" xmlns="http://www.w3.org/2000/svg">
<path d="M8.72586 14.315C7.16048 14.315 5.83485 13.772 4.74897 12.6862C3.66307 11.6003 3.12012 10.2746 3.12012 8.70925C3.12012 7.14388 3.66307 5.81824 4.74897 4.73234C5.83485 3.64646 7.16048 3.10352 8.72586 3.10352C10.2912 3.10352 11.6169 3.64646 12.7028 4.73234C13.7887 5.81824 14.3316 7.14388 14.3316 8.70925C14.3316 9.36385 14.2217 9.98906 14.002 10.5849C13.7822 11.1807 13.489 11.699 13.1223 12.1397L18.3967 17.4141C18.5236 17.541 18.5885 17.7005 18.5915 17.8927C18.5944 18.0848 18.5295 18.2473 18.3967 18.3801C18.2639 18.5129 18.1029 18.5793 17.9137 18.5793C17.7245 18.5793 17.5635 18.5129 17.4307 18.3801L12.1563 13.1057C11.698 13.4841 11.1709 13.7803 10.575 13.9942C9.97921 14.208 9.36282 14.315 8.72586 14.315ZM8.72586 12.94C9.90695 12.94 10.9074 12.5302 11.7271 11.7105C12.5468 10.8908 12.9566 9.89035 12.9566 8.70925C12.9566 7.52816 12.5468 6.52776 11.7271 5.70804C10.9074 4.88833 9.90695 4.47847 8.72586 4.47847C7.54476 4.47847 6.54436 4.88833 5.72464 5.70804C4.90494 6.52776 4.49509 7.52816 4.49509 8.70925C4.49509 9.89035 4.90494 10.8908 5.72464 11.7105C6.54436 12.5302 7.54476 12.94 8.72586 12.94Z" fill="#333236"/>
</svg>
